<?xml version="1.0" encoding="iso-8859-1"?>
<!-- Generator: Adobe Illustrator 16.0.0, SVG Export Plug-In . SVG Version: 6.00 Build 0)  -->
<!DOCTYPE svg PUBLIC "-//W3C//DTD SVG 1.1//EN" "http://www.w3.org/Graphics/SVG/1.1/DTD/svg11.dtd">
<svg xmlns="http://www.w3.org/2000/svg" xmlns:xlink="http://www.w3.org/1999/xlink" version="1.1" id="Capa_1" x="0px" y="0px" width="512px" height="512px" viewBox="0 0 612 612" style="enable-background:new 0 0 612 612;" xml:space="preserve">
<g>
	<g id="play_movie">
		<g>
			<path d="M383.988,246.553L278.683,194.45c-5.369-2.615-10.626-3.95-15.62-3.95c-13.241-0.014-26.608,9.889-26.608,32.046v97.364     c0,22.156,13.52,32.061,26.914,32.061c5.021,0,10.307-1.336,15.801-4.006l104.068-52.021c11.739-5.73,18.471-14.855,18.471-25.05     C401.708,260.921,395.227,252.033,383.988,246.553z M263.369,338.061l-0.014-13.908h0.014V338.061z M266.846,323.025     c-0.904,0.432-1.627,0.709-2.169,0.861c-0.209-0.861-0.403-2.17-0.403-3.977v-97.364c0-1.725,0.167-3.004,0.348-3.895     c0.487,0.167,1.085,0.403,1.794,0.765l104.374,51.645L266.846,323.025z M570.272,55.637H41.727C18.722,55.637,0,74.358,0,97.364     v333.817c0,23.006,18.722,41.729,41.727,41.729h208.637v55.637h-55.637v27.816h222.545v-27.816h-55.636V472.91h208.636     c23.006,0,41.728-18.723,41.728-41.729V97.364C612,74.358,593.278,55.637,570.272,55.637z M333.818,528.547h-55.637V472.91     h55.637V528.547z M584.182,431.182c0,7.678-6.245,13.91-13.909,13.91H41.727c-7.664,0-13.909-6.232-13.909-13.91V97.364     c0-7.678,6.245-13.909,13.909-13.909h528.545c7.664,0,13.909,6.231,13.909,13.909V431.182z" fill="#FFFFFF"/>
		</g>
	</g>
</g>
<g>
</g>
<g>
</g>
<g>
</g>
<g>
</g>
<g>
</g>
<g>
</g>
<g>
</g>
<g>
</g>
<g>
</g>
<g>
</g>
<g>
</g>
<g>
</g>
<g>
</g>
<g>
</g>
<g>
</g>
</svg>
